# Blender v2.78 (sub 0) OBJ File: '3.blend'
# www.blender.org
mtllib Tomato_01.mtl
o Sphere
v -0.000001 7.151933 -0.000000
v 4.098592 6.751611 -4.098592
v 4.559062 4.675619 -4.559063
v 4.352824 2.587206 -4.352826
v 5.796284 6.751611 -0.000001
v 6.447487 4.675619 -0.000001
v 6.155824 2.587206 -0.000001
v 4.098592 6.751611 4.098591
v 4.559062 4.675619 4.559060
v 4.352824 2.587206 4.352823
v 0.000000 6.751611 5.796282
v 0.000000 4.675619 6.447486
v 0.000000 2.587206 6.155822
v -4.098591 6.751611 4.098591
v -4.559061 4.675619 4.559060
v -4.352824 2.587206 4.352823
v -5.796283 6.751611 -0.000001
v -6.447486 4.675619 -0.000001
v -6.155822 2.587206 -0.000001
v -4.098591 6.751611 -4.098592
v -4.559061 4.675619 -4.559062
v -4.352824 2.587206 -4.352825
v -0.000000 6.751611 -5.796284
v 0.000000 4.675619 -6.447487
v 0.000000 2.587206 -6.155824
v 0.000000 0.004461 -0.000001
v 2.046523 0.243587 -2.046524
v 3.672886 0.848747 -3.672887
v 5.194245 0.848748 -0.000001
v 2.894221 0.243587 -0.000001
v 3.672886 0.848748 3.672885
v 2.046523 0.243587 2.046522
v 0.000000 0.848748 5.194244
v -0.000000 0.243587 2.894220
v -3.672886 0.848748 3.672885
v -2.046523 0.243587 2.046522
v -5.194245 0.848748 -0.000001
v -2.894221 0.243587 -0.000001
v -3.672886 0.848748 -3.672887
v -2.046523 0.243587 -2.046524
v -0.000000 0.848748 -5.194245
v -0.000000 0.243587 -2.894221
v 3.209792 7.447435 -3.209794
v 1.841810 7.460734 -1.841811
v 2.604712 7.460734 -0.000001
v 4.539332 7.447435 -0.000001
v 1.841810 7.460734 1.841810
v 3.209792 7.447435 3.209791
v -0.000000 7.460734 2.604713
v -0.000000 7.447435 4.539331
v -1.841811 7.460734 1.841810
v -3.209792 7.447435 3.209791
v -2.604714 7.460734 -0.000001
v -4.539332 7.447435 -0.000001
v -1.841811 7.460734 -1.841811
v -3.209792 7.447435 -3.209793
v -0.000000 7.460734 -2.604714
v -0.000000 7.447435 -4.539333
v 0.999054 7.914437 3.429091
v 0.723400 7.674484 0.765797
v -1.041276 7.970261 -0.091048
v 0.459800 7.416072 2.378094
v 1.159370 7.416072 2.088323
v 0.576761 7.568260 -0.890912
v 0.150455 7.568260 -1.067494
v 0.043020 7.674484 1.047619
v -0.837950 7.970261 -0.581921
v 1.283365 7.914437 3.311325
v 0.976041 8.048114 -1.751053
v 0.509175 8.048114 -1.944436
v 1.537030 7.685298 -2.906188
v 1.157725 7.685298 -3.063302
v -2.001354 8.339751 -0.354182
v -1.741288 8.339751 -0.982037
v -3.060405 8.093424 -0.829329
v -2.893071 8.093424 -1.233307
v -3.845279 7.567179 -1.205026
v 1.848024 8.048114 -3.616411
v 1.267543 7.582193 3.859749
v 0.007001 7.052936 0.010771
v 0.763876 7.179834 -0.746104
v 1.077384 7.179834 0.010771
v 0.763876 7.179834 0.767646
v 0.007001 7.179834 1.081154
v -0.749874 7.179834 0.767646
v -1.063382 7.179834 0.010771
v -0.749874 7.179834 -0.746104
v 0.007001 7.179834 -1.059612
v 0.239664 7.445260 -0.221892
v 0.336036 7.445260 0.010771
v 0.239664 7.445260 0.243434
v 0.007001 7.445260 0.339806
v -0.225662 7.445260 0.243434
v -0.322034 7.445260 0.010771
v -0.225662 7.445260 -0.221892
v 0.007001 7.445260 -0.318264
v 0.738236 8.247552 -0.264564
v 0.130595 7.745946 -0.112823
v 0.181789 7.745946 0.010771
v 0.130595 7.745946 0.134365
v 0.007001 7.745946 0.185559
v -0.116593 7.745946 0.134365
v -0.167787 7.745946 0.010771
v -0.116593 7.745946 -0.112823
v 0.007001 7.745946 -0.164017
v 0.805782 9.735451 -1.084856
v 0.782804 8.305363 -0.173817
v 0.738236 8.363172 -0.083070
v 0.630640 8.387118 -0.045482
v 0.523044 8.363172 -0.083070
v 0.478476 8.305363 -0.173817
v 0.523044 8.247552 -0.264564
v 0.630640 8.223607 -0.302152
v 0.754484 9.636040 -1.158712
v 0.754484 9.834865 -1.010999
v 0.630639 9.876040 -0.980407
v 0.506794 9.834865 -1.010999
v 0.455496 9.735451 -1.084856
v 0.506794 9.636040 -1.158712
v 0.630639 9.594861 -1.189304
v -0.393670 7.419612 0.010771
v -0.276316 7.419612 -0.272546
v 0.007001 7.419612 0.411442
v -0.276316 7.419612 0.294088
v 0.407672 7.419612 0.010771
v 0.290318 7.419612 0.294088
v 0.007001 7.419612 -0.389900
v 0.290318 7.419612 -0.272546
v 0.994039 8.014188 3.437204
v 0.718386 7.774234 0.773910
v -1.046291 8.070011 -0.082935
v 0.454785 7.515823 2.386206
v 1.154355 7.515823 2.096436
v 0.571746 7.668011 -0.882799
v 0.145441 7.668011 -1.059381
v 0.038005 7.774234 1.055732
v -0.842964 8.070011 -0.573808
v 1.278351 8.014188 3.319438
v 0.971026 8.147865 -1.742941
v 0.504160 8.147865 -1.936323
v 1.532016 7.785049 -2.898075
v 1.152710 7.785049 -3.055189
v -2.006369 8.439502 -0.346069
v -1.746303 8.439502 -0.973924
v -3.065419 8.193175 -0.821216
v -2.898086 8.193175 -1.225194
v -3.850294 7.666930 -1.196913
v 1.843010 8.147865 -3.608298
v 1.262528 7.681945 3.867862
vn -0.0700 -0.9831 -0.1690
vn 0.1492 -0.9209 0.3601
vn 0.1729 -0.8921 -0.4174
vn -0.1042 -0.9622 0.2516
vn -0.3237 -0.9366 -0.1341
vn 0.1919 -0.9782 0.0795
vn 0.4786 -0.8554 0.1982
vn 0.1622 -0.9057 -0.3916
vn -0.2116 -0.8332 -0.5109
vn 0.0487 -0.9919 -0.1176
vn 0.1176 -0.9919 0.0487
vn 0.0487 -0.9919 0.1176
vn -0.0487 -0.9919 0.1176
vn -0.1176 -0.9919 0.0487
vn -0.1176 -0.9919 -0.0487
vn -0.0487 -0.9919 -0.1176
vn 0.1176 -0.9919 -0.0487
vn 0.3458 0.4283 0.8349
vn -0.8349 0.4283 0.3458
vn -0.3458 0.4283 -0.8349
vn 0.8349 0.4283 0.3458
vn -0.3458 0.4283 0.8349
vn -0.8349 0.4283 -0.3458
vn 0.3458 0.4283 -0.8349
vn 0.8349 0.4283 -0.3458
vn 0.6127 0.7484 0.2538
vn -0.1383 0.9324 0.3338
vn 0.3338 0.9324 0.1383
vn -0.1383 0.9324 -0.3338
vn -0.3338 0.9324 0.1383
vn -0.1680 0.8985 -0.4056
vn 0.3338 0.9324 -0.1383
vn -0.1106 0.9573 0.2671
vn 0.6443 -0.7602 -0.0828
vn 0.3570 -0.0164 0.9340
vn -0.6565 0.7487 0.0914
vn -0.3390 0.1630 -0.9266
vn 0.6933 -0.5552 0.4595
vn -0.3403 0.5997 0.7243
vn -0.6350 0.6261 -0.4526
vn 0.3347 -0.6286 -0.7020
vn 0.9180 0.2033 0.3404
vn -0.3706 0.4932 0.7870
vn 0.3716 -0.5050 -0.7790
vn 0.9197 -0.2208 -0.3247
vn 0.3706 0.4932 0.7870
vn -0.0000 0.5964 -0.8027
vn -0.9197 -0.2208 -0.3247
vn -0.3716 -0.5050 -0.7790
vn -0.9180 0.2033 0.3404
vn 0.1383 0.9324 -0.3338
vn 0.1383 0.9324 0.3338
vn -0.3338 0.9324 -0.1383
vn 0.0700 0.9831 0.1690
vn -0.1492 0.9209 -0.3601
vn -0.1729 0.8921 0.4174
vn 0.1042 0.9622 -0.2516
vn 0.3237 0.9366 0.1341
vn -0.1919 0.9782 -0.0795
vn -0.4786 0.8554 -0.1982
vn -0.1622 0.9057 0.3916
vn 0.2116 0.8332 0.5109
vn -0.3892 -0.0941 0.9163
vn -0.9817 0.0727 -0.1760
vn 0.1940 0.0892 -0.9769
vn -0.8656 -0.0028 -0.5008
vn -0.3779 -0.0939 0.9211
vn 0.9007 0.0100 0.4343
vn 0.9904 0.0599 -0.1248
vn -0.0722 0.0772 -0.9944
vn -0.9557 -0.0713 0.2855
vn -0.8700 -0.0833 0.4859
vn 0.9135 0.0129 0.4066
vn 0.7135 0.0806 -0.6961
vn -0.2961 -0.0922 0.9507
vn -0.6348 0.0309 -0.7720
vn -0.1348 0.0075 0.9908
vn 0.4353 0.0947 -0.8953
vn -0.9225 -0.0150 -0.3856
vn -0.8731 -0.0830 0.4803
vn 0.9514 0.0722 -0.2995
vn 0.9047 0.0108 0.4260
vn 0.9974 0.0456 0.0564
vn 0.8680 0.1661 0.4679
vn 0.0816 -0.9770 -0.1970
vn 0.5951 0.1531 -0.7889
vn -0.6040 -0.7567 -0.2502
vn -0.9984 -0.0122 0.0548
vn 0.1493 -0.9208 0.3604
vn 0.3795 -0.1280 -0.9163
vn 0.4749 0.8578 -0.1967
vn 0.8227 -0.4550 0.3408
vn 0.3676 0.2784 -0.8874
vn 0.4749 0.8578 0.1967
vn 0.3408 -0.4550 -0.8227
vn 0.0823 -0.9960 -0.0341
vn 0.8874 0.2784 -0.3676
vn 0.1967 0.8578 -0.4749
vn 0.0341 -0.9960 -0.0823
vn 0.9163 -0.1280 -0.3795
vn -0.0487 0.9919 0.1176
vn 0.0823 -0.9960 0.0341
vn 0.8874 0.2784 0.3676
vn 0.1967 0.8578 0.4749
vn 0.3408 -0.4550 0.8227
vn 0.9163 -0.1280 0.3795
vn -0.1176 0.9919 -0.0487
vn 0.0341 -0.9960 0.0823
vn 0.3676 0.2784 0.8874
vn -0.1967 0.8578 0.4749
vn -0.3408 -0.4550 0.8227
vn 0.3795 -0.1280 0.9163
vn -0.0487 0.9919 -0.1176
vn -0.3676 0.2784 0.8874
vn -0.4749 0.8578 0.1967
vn -0.8227 -0.4550 0.3408
vn -0.3795 -0.1280 0.9163
vn 0.0487 0.9919 -0.1176
vn -0.0341 -0.9960 0.0823
vn -0.4749 0.8578 -0.1967
vn -0.8227 -0.4550 -0.3408
vn -0.9163 -0.1280 0.3795
vn 0.1176 0.9919 -0.0487
vn -0.0823 -0.9960 0.0341
vn -0.8874 0.2784 0.3676
vn -0.3408 -0.4550 -0.8227
vn -0.9163 -0.1280 -0.3795
vn 0.1176 0.9919 0.0487
vn -0.0823 -0.9960 -0.0341
vn -0.8874 0.2784 -0.3676
vn -0.1967 0.8578 -0.4749
vn -0.3795 -0.1280 -0.9163
vn 0.0487 0.9919 0.1176
vn -0.0341 -0.9960 -0.0823
vn -0.3676 0.2784 -0.8874
vn 0.2530 -0.9618 -0.1048
vn 0.2530 -0.9618 0.1048
vn 0.1048 -0.9618 0.2530
vn -0.1048 -0.9618 0.2530
vn -0.2530 -0.9618 0.1048
vn -0.2530 -0.9618 -0.1048
vn -0.1048 -0.9618 -0.2530
vn 0.1048 -0.9618 -0.2530
vn 0.8227 -0.4550 -0.3408
vn 0.0069 1.0000 -0.0028
vn 0.0069 1.0000 0.0028
vn 0.0028 1.0000 0.0069
vn -0.0028 1.0000 0.0069
vn -0.0069 1.0000 0.0028
vn -0.0069 1.0000 -0.0028
vn -0.0028 1.0000 -0.0069
vn 0.0028 1.0000 -0.0069
vn -0.1176 0.9919 0.0487
usemtl 4CAF50
s off
f 60//1 63//1 62//1 66//1
f 63//2 68//2 59//2 62//2
f 65//3 70//3 69//3 64//3
f 70//4 72//4 71//4 69//4
f 61//5 73//5 74//5 67//5
f 73//6 75//6 76//6 74//6
f 75//7 77//7 76//7
f 72//8 78//8 71//8
f 68//9 79//9 59//9
f 88//10 81//10 80//10
f 82//11 83//11 80//11
f 83//12 84//12 80//12
f 84//13 85//13 80//13
f 85//14 86//14 80//14
f 86//15 87//15 80//15
f 87//16 88//16 80//16
f 81//17 82//17 80//17
f 92//18 91//18 100//18 101//18
f 94//19 93//19 102//19 103//19
f 96//20 95//20 104//20 105//20
f 91//21 90//21 99//21 100//21
f 93//22 92//22 101//22 102//22
f 95//23 94//23 103//23 104//23
f 89//24 96//24 105//24 98//24
f 90//25 89//25 98//25 99//25
f 131//26 94//26 95//26 137//26
f 124//27 123//27 92//27 93//27
f 126//28 125//28 90//28 91//28
f 127//29 122//29 95//29 96//29
f 121//30 124//30 93//30 94//30
f 130//31 91//31 92//31 136//31
f 125//32 128//32 89//32 90//32
f 135//33 96//33 89//33 134//33
f 99//34 98//34 97//34 107//34
f 101//35 100//35 108//35 109//35
f 103//36 102//36 110//36 111//36
f 105//37 104//37 112//37 113//37
f 100//38 99//38 107//38 108//38
f 102//39 101//39 109//39 110//39
f 104//40 103//40 111//40 112//40
f 98//41 105//41 113//41 97//41
f 108//42 107//42 106//42 115//42
f 110//43 109//43 116//43 117//43
f 97//44 113//44 120//44 114//44
f 107//45 97//45 114//45 106//45
f 109//46 108//46 115//46 116//46
f 114//47 120//47 119//47 118//47 117//47 116//47 115//47 106//47
f 112//48 111//48 118//48 119//48
f 113//49 112//49 119//49 120//49
f 111//50 110//50 117//50 118//50
f 81//51 88//51 127//51 128//51
f 82//32 81//32 128//32 125//32
f 84//52 83//52 126//52 123//52
f 86//30 85//30 124//30 121//30
f 88//29 87//29 122//29 127//29
f 83//28 82//28 125//28 126//28
f 85//27 84//27 123//27 124//27
f 87//53 86//53 121//53 122//53
f 130//54 136//54 132//54 133//54
f 133//55 132//55 129//55 138//55
f 135//56 134//56 139//56 140//56
f 140//57 139//57 141//57 142//57
f 131//58 137//58 144//58 143//58
f 143//59 144//59 146//59 145//59
f 145//60 146//60 147//60
f 142//61 141//61 148//61
f 138//62 129//62 149//62
f 75//63 73//63 143//63 145//63
f 65//64 127//64 96//64 135//64
f 74//65 76//65 146//65 144//65
f 72//66 70//66 140//66 142//66
f 77//67 75//67 145//67 147//67
f 69//68 71//68 141//68 139//68
f 68//69 63//69 133//69 138//69
f 76//70 77//70 147//70 146//70
f 66//71 62//71 132//71 136//71
f 62//72 59//72 129//72 132//72
f 71//73 78//73 148//73 141//73
f 60//74 126//74 91//74 130//74
f 73//75 61//75 131//75 143//75
f 78//76 72//76 142//76 148//76
f 61//77 121//77 94//77 131//77
f 67//78 74//78 144//78 137//78
f 70//79 65//79 135//79 140//79
f 59//80 79//80 149//80 129//80
f 63//81 60//81 130//81 133//81
f 64//82 69//82 139//82 134//82
f 79//83 68//83 138//83 149//83
f 134//84 89//84 128//84 64//84
f 64//85 128//85 127//85 65//85
f 137//86 95//86 122//86 67//86
f 67//87 122//87 121//87 61//87
f 136//88 92//88 123//88 66//88
f 66//89 123//89 126//89 60//89
usemtl F44336
f 25//90 24//90 3//90 4//90
f 2//91 43//91 46//91 5//91
f 29//92 7//92 10//92 31//92
f 24//93 23//93 2//93 3//93
f 5//94 46//94 48//94 8//94
f 41//95 25//95 4//95 28//95
f 26//96 27//96 30//96
f 3//97 2//97 5//97 6//97
f 23//98 58//98 43//98 2//98
f 26//99 42//99 27//99
f 4//100 3//100 6//100 7//100
f 57//101 1//101 44//101
f 26//102 30//102 32//102
f 6//103 5//103 8//103 9//103
f 8//104 48//104 50//104 11//104
f 31//105 10//105 13//105 33//105
f 7//106 6//106 9//106 10//106
f 45//107 1//107 47//107
f 26//108 32//108 34//108
f 9//109 8//109 11//109 12//109
f 11//110 50//110 52//110 14//110
f 33//111 13//111 16//111 35//111
f 10//112 9//112 12//112 13//112
f 47//113 1//113 49//113
f 12//114 11//114 14//114 15//114
f 14//115 52//115 54//115 17//115
f 35//116 16//116 19//116 37//116
f 13//117 12//117 15//117 16//117
f 49//118 1//118 51//118
f 26//119 34//119 36//119
f 17//120 54//120 56//120 20//120
f 37//121 19//121 22//121 39//121
f 16//122 15//122 18//122 19//122
f 51//123 1//123 53//123
f 26//124 36//124 38//124
f 15//125 14//125 17//125 18//125
f 39//126 22//126 25//126 41//126
f 19//127 18//127 21//127 22//127
f 53//128 1//128 55//128
f 26//129 38//129 40//129
f 18//130 17//130 20//130 21//130
f 20//131 56//131 58//131 23//131
f 22//132 21//132 24//132 25//132
f 55//133 1//133 57//133
f 26//134 40//134 42//134
f 21//135 20//135 23//135 24//135
f 30//136 27//136 28//136 29//136
f 32//137 30//137 29//137 31//137
f 34//138 32//138 31//138 33//138
f 33//139 35//139 36//139 34//139
f 35//140 37//140 38//140 36//140
f 37//141 39//141 40//141 38//141
f 39//142 41//142 42//142 40//142
f 27//143 42//143 41//143 28//143
f 28//144 4//144 7//144 29//144
f 46//145 43//145 44//145 45//145
f 48//146 46//146 45//146 47//146
f 50//147 48//147 47//147 49//147
f 52//148 50//148 49//148 51//148
f 54//149 52//149 51//149 53//149
f 53//150 55//150 56//150 54//150
f 55//151 57//151 58//151 56//151
f 57//152 44//152 43//152 58//152
f 44//153 1//153 45//153
