mtllib materials.mtl
v 0 0.06705034 0.07960916
v 0.0335252 0.06705034 0.07062614
v 0.03352517 -1.192093E-07 0.07062614
v 0 -1.192093E-07 0.07960922
v 0.04689229 -1.192093E-07 0.04608405
v 0.04689229 0.06705034 0.04608399
v 0.05587533 0.06705034 0.01255882
v 0.04689229 0.06705034 -0.02096635
v 0.04470029 -1.192093E-07 0.01255882
v 0.0335252 0.06705034 -0.0455085
v 0.0457963 0.03352523 -0.03323746
v 0 0.06705034 -0.05449152
v 0.03441015 0.04794192 -0.05935127
v -0.0335252 0.06705046 -0.0455085
v -0.000323981 0.05035448 -0.06814533
v -0.04689224 0.06705046 -0.02096635
v -0.0494937 0.03682101 -0.03696918
v -0.05587533 0.06705046 0.01255882
v -0.04470029 1.192093E-07 0.01255882
v -0.04689226 0.06705046 0.04608399
v -0.04689227 1.192093E-07 0.04608399
v -0.03352515 0.06705034 0.07062614
v -0.03352518 -1.192093E-07 0.07062614
v -0.03809783 0.08940065 0.03455466
v -0.02199575 0.08940041 0.05065674
v 0 -0.05587542 0.06843418
v 0.02768943 -0.1005757 0.06568837
v -2.980232E-08 -0.1005757 0.07430959
v -0.04399167 0.08940065 0.01255876
v -0.03809786 0.08940065 -0.009437144
v -0.02199578 0.08940065 -0.02553922
v 1.192093E-07 0.08940065 -0.03143299
v 0.02199602 0.08940065 -0.02553922
v 0.03809813 0.08940041 -0.009437144
v 0.04399192 0.08940041 0.01255876
v 0.03809813 0.08940041 0.03455466
v 0.02199602 0.08940041 0.05065674
v 1.192093E-07 0.08940041 0.05655056
v -0.02249604 0.1005757 0.02554703
v -0.01298791 0.1005753 0.03505516
v -0.02597629 0.1005757 0.0125587
v -0.02249604 0.1005757 -0.0004296899
v -0.01298794 0.1005757 -0.009937763
v 4.172325E-07 0.1005757 -0.01341802
v 0.01298878 0.1005757 -0.009937763
v 0.02249691 0.1005753 -0.0004296899
v 0.02597713 0.1005753 0.0125587
v 0.02249691 0.1005753 0.02554703
v 0.01298878 0.1005753 0.03505516
v 4.172325E-07 0.1005753 0.03853542
v -0.04951528 0.0005996227 -0.004366398
v -0.04470031 -0.01117492 -0.02315849
v -0.02235019 -0.0558753 0.02373385
v -0.04020883 -0.06146276 0.01146269
v 0.04470032 -0.01117492 -0.02315843
v 0.0490638 -0.002300143 0.0006651282
v 0.03571728 -0.05587542 0.01255876
v 0.02235016 -0.05587542 0.02373385
v -0.02454224 -0.0558753 0.04608411
v 0.02454221 -0.05587542 0.04608405
v -0.03305501 0.03256333 -0.06311345
v 0 0.03073144 -0.06846046
v -0.0345591 0.05085921 -0.06074673
v -0.03352529 -0.06705034 -0.05668378
v 0.02639508 -0.1005757 0.02354199
v -2.980232E-08 -0.1005757 0.01236695
v -0.02768946 -0.1005757 0.06568843
v -0.02639514 -0.1005757 0.02354199
v -2.980232E-08 -0.01005447 -0.04901803
v 0.000351876 -0.009593606 -0.05986726
v -0.008659363 -0.007343411 -0.05786657
v 0.03352526 -0.06705034 -0.05668372
v 0 0.03352523 -0.05449164
v 0.01308268 -0.005305171 -0.04460663
v 0.009408295 -0.006970763 -0.05754316
v 0.03073147 -0.03911269 -0.05473888
v 0.03317508 0.03087354 -0.06091821
v 0.03107509 0.02678061 -0.04490578
v -0.0307315 -0.03911269 -0.054739
v -0.01165798 -0.004768968 -0.04456782
v 0.05362967 -0.06425643 -0.0393731
v 0.01711398 -0.0473913 -0.07757235
v 0.0230529 -0.07074189 -0.07960927
v -0.01711395 -0.0473913 -0.07757235
v -0.02305287 -0.07074189 -0.07960927
v -0.05362967 -0.06425643 -0.0393731
v -0.03148681 0.03079855 -0.04557782
vn 0 0 1
vn 0.8781887 2.693112E-08 0.4783144
vn 0.9659258 3.584073E-07 0.2588192
vn 0.953647 -0.1589409 -0.2555293
vn 0.868931 0.1448238 -0.4732706
vn 0.2108642 0.5798599 -0.7869553
vn -0.2025998 0.6222823 -0.7561204
vn -0.834256 0.3123344 -0.4543832
vn -0.9536467 -0.1589409 -0.2555301
vn -0.9659256 2.652888E-07 0.2588201
vn -0.8781893 5.045684E-07 0.4783131
vn -0.4999998 8.742273E-08 0.8660256
vn -0.500865 0.7058812 0.5008652
vn 0.2949643 0.1245212 0.9473599
vn -0.8592297 0.4568565 0.2302315
vn -0.8592311 0.4568539 -0.2302313
vn -0.5008653 0.7058809 -0.5008653
vn -0.18333 0.705879 -0.6841967
vn 0.1833303 0.7058777 -0.6841978
vn 0.5008653 0.7058812 -0.500865
vn 0.8592332 0.4568497 -0.2302317
vn 0.859233 0.4568504 0.2302313
vn 0.5008644 0.7058823 0.5008643
vn 0.1833289 0.7058833 0.6841923
vn -0.1833282 0.7058846 0.6841912
vn -0.3820802 0.8414354 0.3821011
vn -0.5219466 0.8414345 0.1398562
vn -0.5219473 0.8414341 -0.1398564
vn -0.3820946 0.8414326 -0.382093
vn -0.1398568 0.8414302 -0.5219533
vn 0.1398576 0.8414282 -0.5219564
vn 0.3821096 0.841428 -0.3820879
vn 0.521955 0.8414289 -0.1398581
vn 0.5219542 0.8414295 0.1398574
vn 0.3820956 0.841431 0.3820954
vn 0.1398561 0.841433 0.5219491
vn -0.1398553 0.8414351 0.5219458
vn 5.846858E-05 1 -1.6822E-05
vn -0.9765743 -0.143635 -0.1602235
vn -0.553649 -0.05527688 0.8309135
vn 0.9855879 -0.05984227 -0.1582258
vn 0.6380156 -0.1025741 0.7631611
vn -0.9267712 -0.3707065 -0.0605947
vn -0.8285583 -0.3314207 0.4512776
vn -0.2541201 -0.1896774 0.948391
vn 0.2541206 -0.1896775 0.9483908
vn 0.8285558 -0.3314219 0.4512813
vn 0.9267706 -0.3707081 -0.06059603
vn 0.9183604 -0.3853588 -0.09007067
vn -0.9183608 -0.3853579 -0.0900708
vn -0.9931059 0.0248161 0.1145633
vn -0.959825 -0.07496254 0.2704008
vn 0.9994661 -0.03267381 1.000777E-06
vn 0.9189316 -0.1477362 0.3657031
vn -0.1589578 0.01323035 -0.9871967
vn 0.9313334 0.2409465 -0.2730621
vn -0.8699582 0.3662833 -0.3301656
vn -0.9843489 -0.1640579 -0.06435934
vn 0.9843489 -0.1640579 -0.06436076
vn -0.6178817 -0.397346 0.6784824
vn 0.6178812 -0.3973458 0.6784829
vn -0.8592302 0.4568557 0.2302309
vn -0.8592306 0.4568548 -0.2302314
vn 0.8592336 0.456849 -0.2302313
vn 0.8592333 0.4568499 0.230231
vn 0.8781891 3.191324E-07 0.4783137
vn 0.7556017 0.5096051 0.4115444
vn -0.8781891 2.680429E-07 0.4783136
vn -0.7555982 0.5096098 0.4115449
vn 0.07183264 -0.9934823 0.08850367
vn 0.997914 0.05681906 -0.03064634
vn 0.3863823 0.1335193 -0.9126233
vn -0.997914 0.05681948 -0.03064611
vn -0.2949628 0.1245215 0.9473602
vn -1.277428E-06 -1 1.871574E-07
vn 1.230404E-06 0.3528832 -0.9356673
vn -0.9911761 0.09010924 -0.09721237
vn 0.9930594 0.06593037 -0.09739705
vn -0.6311327 0.3483827 0.6930376
vn 0.6311345 0.3483827 0.693036
vn 0 0 0
vn 0.071885 -0.9936997 0.08598473
vn -0.252258 -0.9664071 -0.04922608
vn -1.264963E-07 -0.9872259 0.1593269
vn -0.1865146 0.1200424 -0.9750908
vn 0.3495503 -0.9364859 -0.02843596
vn 0.2132452 0.1225799 -0.9692785
vn -0.7556011 0.5096065 -0.4115435
vn -0.5219467 0.8414345 -0.1398559
vn -0.3820936 0.8414328 -0.3820933
vn 0.7556027 0.5096034 -0.4115445
vn -0.929821 0.2465078 0.2732521
vn 0.9037019 0.3348869 0.2667838
vn 0.5498757 0.4898201 -0.6765448
vn 0.2494321 0.07061876 -0.9658139
vn -0.8466164 -0.0007561187 -0.532203
vn 0.9105353 -0.02801876 -0.4124809
vn -0.1446513 0.6830244 -0.7159286
vn -0.183328 0.7058799 -0.6841962
vn 0.6604263 -0.1805373 -0.7288644
vn -0.537185 0.4996002 -0.6795821
vn 1.18262E-05 -0.9872259 0.1593264
vn 8.648588E-07 0.1931699 -0.9811653
vn -0.1801687 0.3699793 -0.9114025
vn 0.175511 0.3655789 -0.9140831
vn 2.649346E-07 0.9401156 -0.3408558
vn -1.230244E-07 -0.9872823 0.1589769
vn 1.683317E-07 0.08690265 -0.9962168
vn -0.862614 0.2573846 -0.4354883
vn -1.089578E-07 -0.9872823 0.1589772
vn 3.943329E-07 0.08690397 -0.9962167
vn -0.8326651 0.1208876 -0.5404212
vn 0.862615 0.2573833 -0.4354874
vn 0.8326665 0.1208873 -0.540419
vn -0.7394368 0.3073539 -0.5989714
vn 0.739436 0.3073535 -0.5989726
vn -0.07426113 -0.9944705 0.07425546
vn -0.9740302 -0.1808158 -0.1362752
vn 0.9628754 -0.2577085 -0.08035687
vn 0.9465627 0.06258368 0.3163894
vn -0.6386534 0.1168117 -0.7605767
vn 0.6386523 0.1168115 -0.7605776
vn -0.9644539 0.08590447 0.2498982
vn 2.649346E-07 0.9401156 -0.3408558
vn -0.489472 -0.2859327 -0.823808
vn 0.5077461 -0.8483041 -0.1502465
vn 0.2603617 -0.1548859 -0.9530069
vn -0.1270918 -0.956867 -0.2612533
vn -0.04035312 -0.9797812 0.1959608
vn -0.4798582 -0.2910233 -0.8276724
vn 0.1757235 -0.4411628 -0.880055
vn -0.2548813 -0.1691316 -0.9520661
vn 0.5003495 -0.2881879 -0.8164546
vn -0.1757235 0.4411628 0.880055
vn -0.3895735 0.03920285 -0.9201607
vn -0.02261207 -0.9803292 0.1960701
vn 0.2215701 0.0193167 -0.9749531
vn 0.05626994 -0.9928839 -0.1049541
vn -0.3437356 -0.9369137 -0.0635495
vn -0.208456 0.1085962 -0.9719841
vn 0.2336892 0.6128079 -0.754888
vn -0.9414626 0.2205358 -0.2549746
vn 0.9260259 0.2372613 -0.2935696
vn -0.3818548 -0.9196392 0.09192812
vn 0.2664107 -0.96265 0.04827347
usemtl mat18
f 4//1 3//1 2//1 1//1
f 3//2 5//2 2//2
f 5//3 7//3 6//3
f 9//4 8//4 7//4
f 11//5 10//5 8//5
f 13//6 12//6 10//6
f 15//7 14//7 12//7
f 17//8 16//8 14//8
f 19//9 18//9 16//9
f 21//10 20//10 18//10
f 21//11 23//11 22//11
f 23//12 4//12 1//12 22//12
f 25//13 24//13 22//13
f 28//14 27//14 26//14
f 24//15 29//15 20//15
f 29//16 30//16 16//16
f 30//17 31//17 14//17
f 31//18 32//18 12//18
f 32//19 33//19 10//19 12//19
f 33//20 34//20 10//20
f 34//21 35//21 8//21
f 35//22 36//22 6//22
f 36//23 37//23 2//23
f 37//24 38//24 1//24 2//24
f 38//25 25//25 22//25 1//25
f 40//26 39//26 24//26 25//26
f 39//27 41//27 29//27 24//27
f 41//28 42//28 29//28
f 42//29 43//29 31//29
f 43//30 44//30 32//30 31//30
f 44//31 45//31 33//31 32//31
f 45//32 46//32 34//32 33//32
f 46//33 47//33 35//33 34//33
f 47//34 48//34 36//34 35//34
f 48//35 49//35 37//35 36//35
f 49//36 50//36 38//36 37//36
f 50//37 40//37 25//37 38//37
f 50//38 49//38 48//38 47//38 46//38 45//38 44//38 43//38 42//38 41//38 39//38 40//38
f 52//39 51//39 17//39
f 11//41 56//41 55//41
f 19//43 59//43 21//43
f 21//44 59//44 23//44
f 23//45 26//45 4//45
f 4//46 26//46 3//46
f 3//47 60//47 5//47
f 5//48 60//48 9//48
f 60//49 58//49 9//49
f 19//50 53//50 59//50
f 16//51 17//51 19//51
f 9//53 11//53 8//53
f 11//56 13//56 10//56
f 14//57 63//57 17//57
f 18//58 19//58 21//58
f 5//59 9//59 7//59
f 23//60 59//60 26//60
f 26//61 60//61 3//61
f 29//62 18//62 20//62
f 16//63 18//63 29//63
f 35//64 7//64 8//64
f 6//65 7//65 35//65
f 5//66 6//66 2//66
f 2//67 6//67 36//67
f 22//68 20//68 21//68
f 24//69 20//69 22//69
f 27//71 65//71 60//71
f 68//73 67//73 59//73
f 67//74 28//74 26//74
f 67//75 68//75 66//75 65//75 27//75 28//75
f 59//77 53//77 68//77
f 65//78 58//78 60//78
f 26//79 59//79 67//79
f 27//80 60//80 26//80
f 14//88 16//88 30//88
f 42//89 30//89 29//89
f 31//90 30//90 42//90
f 34//91 8//91 10//91
f 19//92 17//92 51//92
f 56//93 11//93 9//93
f 15//98 63//98 14//98
f 12//99 14//99 31//99
f 55//100 78//100 11//100
f 87//125 52//125 17//125
f 78//126 77//126 11//126
f 73//127 78//127 74//127
f 77//128 78//128 73//128
f 87//130 80//130 52//130
f 73//131 78//131 55//131
f 87//132 73//132 80//132
f 78//133 55//133 74//133
f 78//134 73//134 55//134
f 73//138 87//138 61//138
f 61//139 87//139 17//139
f 13//141 15//141 12//141
usemtl mat19
f 54//40 53//40 19//40
f 9//42 58//42 57//42
f 65//72 66//72 58//72
f 66//76 53//76 58//76
f 58//81 53//81 54//81
f 57//82 58//82 54//82
f 68//135 53//135 66//135
usemtl mat20
f 19//52 51//52 54//52
f 57//54 56//54 9//54
f 15//55 62//55 61//55
f 54//70 64//70 57//70
f 64//84 72//84 57//84
f 76//94 74//94 55//94
f 13//95 77//95 15//95
f 63//96 61//96 17//96
f 11//97 77//97 13//97
f 80//101 79//101 52//101
f 72//102 81//102 57//102
f 79//103 69//103 76//103
f 80//104 69//104 79//104
f 76//105 69//105 74//105
f 79//106 76//106 82//106
f 83//107 72//107 64//107
f 84//108 82//108 83//108
f 84//109 85//109 64//109
f 64//110 85//110 83//110
f 83//111 85//111 84//111
f 84//112 64//112 79//112
f 72//113 83//113 82//113
f 82//114 76//114 72//114
f 52//115 79//115 86//115
f 81//116 76//116 55//116
f 54//117 86//117 64//117
f 52//118 54//118 51//118
f 56//119 57//119 55//119
f 81//120 55//120 57//120
f 79//121 64//121 86//121
f 81//122 72//122 76//122
f 52//123 86//123 54//123
f 84//124 79//124 82//124
f 62//129 77//129 73//129
f 62//136 73//136 61//136
f 62//137 15//137 77//137
f 15//140 61//140 63//140
usemtl mat8
f 71//83 70//83 69//83
f 71//85 73//85 70//85
f 74//86 69//86 70//86
f 73//87 75//87 70//87
f 71//142 80//142 73//142
f 73//143 74//143 75//143
f 69//144 80//144 71//144
f 70//145 75//145 74//145
