# Blender v2.79 (sub 0) OBJ File: 'peacesign.blend'
# www.blender.org
mtllib peacesign.mtl
o Circle
v 0.000000 0.000000 -4.700000
v -0.916925 0.000000 -4.609691
v -1.798612 0.000000 -4.342234
v -2.611180 0.000000 -3.907907
v -3.323402 0.000000 -3.323402
v -3.907908 0.000000 -2.611180
v -4.342234 0.000000 -1.798612
v -4.609691 0.000000 -0.916925
v -4.700000 0.000000 -0.000000
v -4.609691 0.000000 0.916924
v -4.342234 0.000000 1.798612
v -3.907908 0.000000 2.611180
v -3.323402 0.000000 3.323402
v -2.611180 0.000000 3.907908
v -1.798612 0.000000 4.342235
v -0.916923 0.000000 4.609691
v 0.000002 0.000000 4.700000
v 0.916926 0.000000 4.609691
v 1.798614 0.000000 4.342233
v 2.611182 0.000000 3.907906
v 3.323404 0.000000 3.323400
v 3.907909 0.000000 2.611177
v 4.342236 0.000000 1.798609
v 4.609692 0.000000 0.916921
v 4.700000 0.000000 -0.000005
v 4.609690 0.000000 -0.916929
v 4.342232 0.000000 -1.798617
v 3.907904 0.000000 -2.611185
v 3.323398 0.000000 -3.323406
v 2.611175 0.000000 -3.907911
v 1.798606 0.000000 -4.342237
v 0.916918 0.000000 -4.609693
v -0.000000 0.000000 -3.760001
v -0.733540 0.000000 -3.687753
v -1.438890 0.000000 -3.473788
v -2.088944 0.000000 -3.126326
v -2.658722 0.000000 -2.658722
v -3.126326 0.000000 -2.088944
v -3.473788 0.000000 -1.438890
v -3.687753 0.000000 -0.733540
v -3.760000 0.000000 -0.000001
v -3.687753 0.000000 0.733539
v -3.473788 0.000000 1.438889
v -3.126326 0.000000 2.088944
v -2.658722 0.000000 2.658721
v -2.088944 0.000000 3.126326
v -1.438890 0.000000 3.473788
v -0.733539 0.000000 3.687753
v 0.000001 0.000000 3.760000
v 0.733541 0.000000 3.687752
v 1.438891 0.000000 3.473787
v 2.088946 0.000000 3.126325
v 2.658723 0.000000 2.658720
v 3.126328 0.000000 2.088942
v 3.473788 0.000000 1.438887
v 3.687754 0.000000 0.733536
v 3.760000 0.000000 -0.000004
v 3.687752 0.000000 -0.733544
v 3.473786 0.000000 -1.438894
v 3.126324 0.000000 -2.088948
v 2.658718 0.000000 -2.658726
v 2.088940 0.000000 -3.126329
v 1.438885 0.000000 -3.473790
v 0.733534 0.000000 -3.687754
v -0.366769 0.000000 3.723876
v 0.366771 0.000000 3.723876
v -0.366770 0.000000 -3.723877
v 0.366767 0.000000 -3.723878
v -2.892524 0.000000 2.373833
v -2.373833 0.000000 2.892524
v -0.366769 0.000000 -0.000000
v -0.366769 0.000000 1.861938
v -0.366769 0.000000 0.930969
v -0.366769 0.000000 2.792907
v 0.366769 0.000000 -0.000001
v 0.366770 0.000000 1.861938
v 0.366770 0.000000 0.930969
v 2.373835 0.000000 2.892522
v 2.892526 0.000000 2.373831
v -0.916925 0.400000 -4.609691
v 0.000000 0.400000 -4.700000
v -1.798612 0.400000 -4.342234
v -2.611180 0.400000 -3.907907
v -3.323402 0.400000 -3.323402
v -3.907908 0.400000 -2.611180
v -4.342234 0.400000 -1.798612
v -4.609691 0.400000 -0.916925
v -4.700000 0.400000 -0.000000
v -4.609691 0.400000 0.916924
v -4.342234 0.400000 1.798612
v -3.907908 0.400000 2.611180
v -3.323402 0.400000 3.323402
v -2.611180 0.400000 3.907908
v -1.798612 0.400000 4.342235
v -0.916923 0.400000 4.609691
v 0.000002 0.400000 4.700000
v 0.916926 0.400000 4.609691
v 1.798614 0.400000 4.342233
v 2.611182 0.400000 3.907906
v 3.323404 0.400000 3.323400
v 3.907909 0.400000 2.611177
v 4.342236 0.400000 1.798609
v 4.609692 0.400000 0.916921
v 4.700000 0.400000 -0.000005
v 4.609690 0.400000 -0.916929
v 4.342232 0.400000 -1.798617
v 3.907904 0.400000 -2.611185
v 3.323398 0.400000 -3.323406
v 2.611175 0.400000 -3.907911
v 1.798606 0.400000 -4.342237
v 0.916918 0.400000 -4.609693
v -0.366770 0.400000 -3.723877
v -0.000000 0.400000 -3.760001
v -1.438890 0.400000 -3.473788
v -0.733540 0.400000 -3.687753
v -2.088944 0.400000 -3.126326
v -2.658722 0.400000 -2.658722
v -3.126326 0.400000 -2.088944
v -3.473788 0.400000 -1.438890
v -3.687753 0.400000 -0.733540
v -3.760000 0.400000 -0.000001
v -3.687753 0.400000 0.733539
v -3.473788 0.400000 1.438889
v -3.126326 0.400000 2.088944
v -2.892524 0.400000 2.373833
v -2.373833 0.400000 2.892524
v -2.658722 0.400000 2.658721
v -1.438890 0.400000 3.473788
v -2.088944 0.400000 3.126326
v -0.733539 0.400000 3.687753
v -0.366769 0.400000 3.723876
v 0.366771 0.400000 3.723876
v 0.000001 0.400000 3.760000
v 1.438891 0.400000 3.473787
v 0.733541 0.400000 3.687752
v 2.088946 0.400000 3.126325
v 2.373835 0.400000 2.892522
v 2.892526 0.400000 2.373831
v 2.658723 0.400000 2.658720
v 3.473788 0.400000 1.438887
v 3.126328 0.400000 2.088942
v 3.687754 0.400000 0.733536
v 3.760000 0.400000 -0.000004
v 3.687752 0.400000 -0.733544
v 3.473786 0.400000 -1.438894
v 3.126324 0.400000 -2.088948
v 2.658718 0.400000 -2.658726
v 2.088940 0.400000 -3.126329
v 1.438885 0.400000 -3.473790
v 0.733534 0.400000 -3.687754
v 0.366767 0.400000 -3.723878
v -0.366769 0.400000 -0.000000
v 0.366769 0.400000 -0.000001
v -0.366769 0.400000 0.930969
v -0.366769 0.400000 2.792907
v -0.366769 0.400000 1.861938
v 0.366770 0.400000 0.930969
v 0.366770 0.400000 1.861938
vn 0.0000 -1.0000 0.0000
vn 0.0000 1.0000 0.0000
vn 0.6316 -0.7298 -0.2616
vn 0.6705 -0.7298 -0.1333
vn 0.6705 0.7298 -0.1333
vn 0.6316 0.7298 -0.2616
vn -0.1420 -0.6857 0.7139
vn 0.0000 -0.6857 0.7279
vn 0.0000 0.6857 0.7279
vn -0.1420 0.6857 0.7139
vn 0.5684 -0.7298 -0.3798
vn 0.5684 0.7298 -0.3798
vn 0.1420 -0.6857 0.7139
vn 0.1420 0.6857 0.7139
vn 0.0264 -0.9123 -0.4087
vn 0.0264 0.9123 -0.4087
vn 0.2785 -0.6857 0.6725
vn 0.2785 0.6857 0.6725
vn 0.4044 -0.6857 0.6052
vn 0.4044 0.6857 0.6052
vn -0.1333 -0.7298 -0.6705
vn 0.2697 -0.9158 -0.2976
vn 0.2697 0.9158 -0.2976
vn -0.1333 0.7298 -0.6705
vn 0.2616 -0.7298 -0.6316
vn 0.3798 -0.7298 -0.5684
vn 0.3798 0.7298 -0.5684
vn 0.2616 0.7298 -0.6316
vn 0.5147 -0.6857 0.5147
vn 0.5147 0.6857 0.5147
vn 0.1333 -0.7298 0.6705
vn -0.2697 -0.9158 0.2976
vn -0.2697 0.9158 0.2976
vn 0.1333 0.7298 0.6705
vn 0.1333 -0.7298 -0.6705
vn 0.1333 0.7298 -0.6705
vn 0.6052 -0.6857 0.4044
vn 0.6052 0.6857 0.4044
vn -0.2697 -0.9158 -0.2976
vn -0.2697 0.9158 -0.2976
vn 0.6725 -0.6857 0.2785
vn 0.6725 0.6857 0.2785
vn -0.5404 -0.8083 -0.2337
vn -0.5404 0.8083 -0.2337
vn 0.7139 -0.6857 0.1420
vn 0.7139 0.6857 0.1420
vn 0.5405 -0.8082 -0.2337
vn 0.2697 -0.9158 0.2976
vn 0.2697 0.9158 0.2976
vn 0.5405 0.8082 -0.2337
vn -0.2616 -0.7298 -0.6316
vn -0.2616 0.7298 -0.6316
vn 0.7279 -0.6857 0.0000
vn 0.7279 0.6857 0.0000
vn -0.3798 -0.7298 -0.5684
vn -0.3798 0.7298 -0.5684
vn 0.7139 -0.6857 -0.1420
vn 0.7139 0.6857 -0.1420
vn 0.3983 -0.9171 -0.0173
vn 0.3983 0.9171 -0.0173
vn -0.3983 -0.9171 -0.0173
vn -0.3983 0.9171 -0.0173
vn 0.6725 -0.6857 -0.2785
vn 0.6725 0.6857 -0.2785
vn 0.6052 -0.6857 -0.4044
vn 0.6052 0.6857 -0.4044
vn 0.0000 -0.6857 -0.7279
vn -0.1420 -0.6857 -0.7139
vn -0.1420 0.6857 -0.7139
vn 0.0000 0.6857 -0.7279
vn -0.7071 -0.7071 0.0000
vn -0.7071 0.7071 0.0000
vn -0.6316 -0.7298 -0.2616
vn -0.5684 -0.7298 -0.3798
vn -0.5684 0.7298 -0.3798
vn -0.6316 0.7298 -0.2616
vn 0.5147 -0.6857 -0.5147
vn 0.5147 0.6857 -0.5147
vn -0.2785 -0.6857 -0.6725
vn -0.2785 0.6857 -0.6725
vn -0.0841 -0.9762 0.1999
vn -0.0841 0.9762 0.1999
vn -0.6705 -0.7298 -0.1333
vn -0.6705 0.7298 -0.1333
vn 0.4044 -0.6857 -0.6052
vn 0.4044 0.6857 -0.6052
vn -0.4044 -0.6857 -0.6052
vn -0.4044 0.6857 -0.6052
vn -0.6836 -0.7298 0.0000
vn -0.6836 0.7298 0.0000
vn 0.2785 -0.6857 -0.6725
vn 0.2785 0.6857 -0.6725
vn -0.5147 -0.6857 -0.5147
vn -0.5147 0.6857 -0.5147
vn -0.6705 -0.7298 0.1334
vn -0.6705 0.7298 0.1334
vn 0.1420 -0.6857 -0.7139
vn 0.1420 0.6857 -0.7139
vn -0.6052 -0.6857 -0.4044
vn -0.6052 0.6857 -0.4044
vn -0.6316 -0.7298 0.2616
vn -0.6316 0.7298 0.2616
vn -0.6725 -0.6857 -0.2785
vn -0.6725 0.6857 -0.2785
vn -0.5684 -0.7298 0.3798
vn -0.5684 0.7298 0.3798
vn -0.7139 -0.6857 -0.1420
vn -0.7139 0.6857 -0.1420
vn 0.7071 -0.7071 0.0000
vn 0.7071 0.7071 0.0000
vn -0.4834 -0.7298 0.4834
vn -0.4834 0.7298 0.4834
vn 0.2616 -0.7298 0.6316
vn 0.2616 0.7298 0.6316
vn -0.7279 -0.6857 0.0000
vn -0.7279 0.6857 0.0000
vn 0.0841 -0.9762 0.1999
vn 0.0841 0.9762 0.1999
vn -0.3798 -0.7298 0.5684
vn -0.3798 0.7298 0.5684
vn 0.3798 -0.7298 0.5684
vn 0.3798 0.7298 0.5684
vn -0.7139 -0.6857 0.1420
vn -0.7139 0.6857 0.1420
vn -0.2616 -0.7298 0.6316
vn -0.2616 0.7298 0.6316
vn 0.4834 -0.7298 0.4834
vn 0.4834 0.7298 0.4834
vn -0.6725 -0.6857 0.2785
vn -0.6725 0.6857 0.2785
vn -0.0264 -0.9123 -0.4087
vn -0.0264 0.9123 -0.4087
vn -0.1333 -0.7298 0.6705
vn -0.1333 0.7298 0.6705
vn 0.5684 -0.7298 0.3798
vn 0.5684 0.7298 0.3798
vn -0.6052 -0.6857 0.4044
vn -0.6052 0.6857 0.4044
vn 0.6316 -0.7298 0.2616
vn 0.6316 0.7298 0.2616
vn -0.5147 -0.6857 0.5147
vn -0.5147 0.6857 0.5147
vn 0.6705 -0.7298 0.1333
vn 0.6705 0.7298 0.1333
vn -0.4044 -0.6857 0.6052
vn -0.4044 0.6857 0.6052
vn 0.6836 -0.7298 0.0000
vn 0.6836 0.7298 0.0000
vn -0.2785 -0.6857 0.6725
vn -0.2785 0.6857 0.6725
usemtl Material.001
s off
f 11//1 10//1 42//1 43//1
f 25//1 24//1 56//1 57//1
f 12//1 11//1 43//1 44//1
f 26//1 25//1 57//1 58//1
f 13//1 12//1 44//1 69//1 45//1
f 27//1 26//1 58//1 59//1
f 14//1 13//1 45//1 70//1 46//1
f 28//1 27//1 59//1 60//1
f 15//1 14//1 46//1 47//1
f 2//1 1//1 33//1 67//1 34//1
f 29//1 28//1 60//1 61//1
f 16//1 15//1 47//1 48//1
f 3//1 2//1 34//1 35//1
f 30//1 29//1 61//1 62//1
f 17//1 16//1 48//1 65//1 49//1
f 4//1 3//1 35//1 36//1
f 31//1 30//1 62//1 63//1
f 18//1 17//1 49//1 66//1 50//1
f 5//1 4//1 36//1 37//1
f 32//1 31//1 63//1 64//1
f 19//1 18//1 50//1 51//1
f 6//1 5//1 37//1 38//1
f 1//1 32//1 64//1 68//1 33//1
f 20//1 19//1 51//1 52//1
f 7//1 6//1 38//1 39//1
f 21//1 20//1 52//1 78//1 53//1
f 8//1 7//1 39//1 40//1
f 22//1 21//1 53//1 79//1 54//1
f 9//1 8//1 40//1 41//1
f 23//1 22//1 54//1 55//1
f 10//1 9//1 41//1 42//1
f 24//1 23//1 55//1 56//1
f 67//1 33//1 68//1 75//1 77//1 76//1 66//1 49//1 65//1 74//1 72//1 73//1 71//1
f 53//1 78//1 77//1 75//1 79//1
f 70//1 45//1 69//1 71//1 73//1
f 90//2 123//2 122//2 89//2
f 104//2 143//2 142//2 103//2
f 91//2 124//2 123//2 90//2
f 105//2 144//2 143//2 104//2
f 92//2 127//2 125//2 124//2 91//2
f 106//2 145//2 144//2 105//2
f 93//2 129//2 126//2 127//2 92//2
f 107//2 146//2 145//2 106//2
f 94//2 128//2 129//2 93//2
f 80//2 115//2 112//2 113//2 81//2
f 108//2 147//2 146//2 107//2
f 95//2 130//2 128//2 94//2
f 82//2 114//2 115//2 80//2
f 109//2 148//2 147//2 108//2
f 96//2 133//2 131//2 130//2 95//2
f 83//2 116//2 114//2 82//2
f 110//2 149//2 148//2 109//2
f 97//2 135//2 132//2 133//2 96//2
f 84//2 117//2 116//2 83//2
f 111//2 150//2 149//2 110//2
f 98//2 134//2 135//2 97//2
f 85//2 118//2 117//2 84//2
f 81//2 113//2 151//2 150//2 111//2
f 99//2 136//2 134//2 98//2
f 86//2 119//2 118//2 85//2
f 100//2 139//2 137//2 136//2 99//2
f 87//2 120//2 119//2 86//2
f 101//2 141//2 138//2 139//2 100//2
f 88//2 121//2 120//2 87//2
f 102//2 140//2 141//2 101//2
f 89//2 122//2 121//2 88//2
f 103//2 142//2 140//2 102//2
f 112//2 152//2 154//2 156//2 155//2 131//2 133//2 132//2 158//2 157//2 153//2 151//2 113//2
f 139//2 138//2 153//2 157//2 137//2
f 126//2 154//2 152//2 125//2 127//2
s 1
f 43//3 42//4 122//5 123//6
f 16//7 17//8 96//9 95//10
f 44//11 43//3 123//6 124//12
f 17//8 18//13 97//14 96//9
f 69//15 44//11 124//12 125//16
f 18//13 19//17 98//18 97//14
f 19//17 20//19 99//20 98//18
f 50//21 66//22 132//23 135//24
f 47//25 46//26 129//27 128//28
f 20//19 21//29 100//30 99//20
f 34//31 67//32 112//33 115//34
f 48//35 47//25 128//28 130//36
f 21//29 22//37 101//38 100//30
f 65//39 48//35 130//36 131//40
f 22//37 23//41 102//42 101//38
f 67//32 71//43 152//44 112//33
f 23//41 24//45 103//46 102//42
f 75//47 68//48 151//49 153//50
f 51//51 50//21 135//24 134//52
f 24//45 25//53 104//54 103//46
f 52//55 51//51 134//52 136//56
f 25//53 26//57 105//58 104//54
f 46//26 70//59 126//60 129//27
f 78//61 52//55 136//56 137//62
f 26//57 27//63 106//64 105//58
f 27//63 28//65 107//66 106//64
f 1//67 2//68 80//69 81//70
f 72//71 74//71 155//72 156//72
f 55//73 54//74 141//75 140//76
f 28//65 29//77 108//78 107//66
f 2//68 3//79 82//80 80//69
f 73//81 72//71 156//72 154//82
f 56//83 55//73 140//76 142//84
f 29//77 30//85 109//86 108//78
f 3//79 4//87 83//88 82//80
f 74//71 65//39 131//40 155//72
f 57//89 56//83 142//84 143//90
f 30//85 31//91 110//92 109//86
f 4//87 5//93 84//94 83//88
f 70//59 73//81 154//82 126//60
f 58//95 57//89 143//90 144//96
f 31//91 32//97 111//98 110//92
f 5//93 6//99 85//100 84//94
f 71//43 69//15 125//16 152//44
f 59//101 58//95 144//96 145//102
f 32//97 1//67 81//70 111//98
f 6//99 7//103 86//104 85//100
f 60//105 59//101 145//102 146//106
f 7//103 8//107 87//108 86//104
f 66//22 76//109 158//110 132//23
f 61//111 60//105 146//106 147//112
f 35//113 34//31 115//34 114//114
f 8//107 9//115 88//116 87//108
f 76//109 77//117 157//118 158//110
f 62//119 61//111 147//112 148//120
f 36//121 35//113 114//114 116//122
f 9//115 10//123 89//124 88//116
f 63//125 62//119 148//120 149//126
f 37//127 36//121 116//122 117//128
f 10//123 11//129 90//130 89//124
f 54//74 79//131 138//132 141//75
f 64//133 63//125 149//126 150//134
f 38//135 37//127 117//128 118//136
f 11//129 12//137 91//138 90//130
f 79//131 75//47 153//50 138//132
f 68//48 64//133 150//134 151//49
f 39//139 38//135 118//136 119//140
f 12//137 13//141 92//142 91//138
f 77//117 78//61 137//62 157//118
f 40//143 39//139 119//140 120//144
f 13//141 14//145 93//146 92//142
f 41//147 40//143 120//144 121//148
f 14//145 15//149 94//150 93//146
f 42//4 41//147 121//148 122//5
f 15//149 16//7 95//10 94//150
