mtllib Gold.mtl
usemtl phong1SG
# Blender v2.78 (sub 0) OBJ File: ''
# www.blender.org
o Gold_Q
v 0.232534 -0.083160 -0.087933
v 0.209919 0.010530 -0.063401
v 0.209919 0.010530 0.063275
v 0.232534 -0.083160 0.087807
v -0.221710 -0.083213 -0.099453
v -0.199069 0.010582 -0.074893
v 0.198455 0.010582 -0.074893
v 0.221096 -0.083213 -0.099453
v 0.221096 -0.083213 0.099327
v 0.198455 0.010582 0.074767
v -0.199069 0.010582 0.074767
v -0.221710 -0.083213 0.099327
v -0.233148 -0.083160 0.087807
v -0.210533 0.010530 0.063275
v -0.210533 0.010530 -0.063401
v -0.233148 -0.083160 -0.087933
v 0.224000 -0.094000 0.091000
v 0.231178 -0.090814 0.089988
v 0.229271 -0.089430 0.096167
v 0.223090 -0.090851 0.098134
v 0.229124 -0.083187 0.095876
v 0.204867 0.018183 0.061448
v 0.203629 0.016799 0.068351
v 0.206496 0.010556 0.071330
v 0.196151 0.021369 0.060792
v 0.196761 0.018221 0.069575
v -0.224614 -0.094000 0.091000
v -0.223704 -0.090851 0.098134
v -0.229885 -0.089430 0.096167
v -0.231792 -0.090814 0.089989
v -0.229738 -0.083187 0.095876
v -0.196765 0.021369 0.060792
v -0.205481 0.018183 0.061448
v -0.204243 0.016799 0.068351
v -0.197375 0.018221 0.069575
v -0.207110 0.010556 0.071330
v 0.224000 -0.094000 -0.091126
v 0.223090 -0.090851 -0.098260
v 0.229271 -0.089430 -0.096293
v 0.231178 -0.090814 -0.090115
v 0.229124 -0.083187 -0.096002
v 0.196151 0.021369 -0.060918
v 0.204867 0.018183 -0.061574
v 0.203629 0.016799 -0.068477
v 0.196761 0.018221 -0.069701
v 0.206496 0.010556 -0.071456
v -0.224614 -0.094000 -0.091126
v -0.231792 -0.090814 -0.090114
v -0.229885 -0.089430 -0.096293
v -0.223704 -0.090851 -0.098260
v -0.229738 -0.083187 -0.096002
v -0.196765 0.021369 -0.060918
v -0.197375 0.018221 -0.069701
v -0.204243 0.016799 -0.068477
v -0.205481 0.018183 -0.061574
v -0.207110 0.010556 -0.071456
vt 0.3021 0.5956
vt 0.0679 0.7430
vt 0.0306 0.5945
vt 0.9910 0.4779
vt 0.3392 0.3235
vt 0.9910 0.3235
vt 0.0050 0.8130
vt 0.6568 0.9673
vt 0.0050 0.9673
vt 0.2649 0.4692
vt 0.0306 0.3218
vt 0.3021 0.3206
vt 0.0233 0.5729
vt 0.0179 0.5860
vt 0.0095 0.5815
vt 0.0178 0.5951
vt 0.0272 0.5836
vt 0.0050 0.5972
vt 0.0594 0.7551
vt 0.0550 0.7445
vt 0.0698 0.7708
vt 0.0703 0.7567
vt 0.0432 0.7504
vt 0.0537 0.7642
vt 0.3095 0.2990
vt 0.3148 0.3121
vt 0.3055 0.3097
vt 0.3149 0.3212
vt 0.3232 0.3076
vt 0.3277 0.3234
vt 0.2630 0.4970
vt 0.2734 0.4813
vt 0.2791 0.4904
vt 0.2625 0.4829
vt 0.2896 0.4765
vt 0.2778 0.4706
vt 0.3097 0.5740
vt 0.3149 0.5872
vt 0.3056 0.5848
vt 0.3149 0.5963
vt 0.3233 0.5828
vt 0.3277 0.5986
vt 0.2615 0.7716
vt 0.2720 0.7560
vt 0.2776 0.7652
vt 0.2636 0.7438
vt 0.2611 0.7575
vt 0.2883 0.7514
vt 0.2765 0.7454
vt 0.0230 0.3003
vt 0.0178 0.3135
vt 0.0094 0.3090
vt 0.0178 0.3226
vt 0.0271 0.3110
vt 0.0050 0.3248
vt 0.0713 0.4978
vt 0.0608 0.4823
vt 0.0717 0.4837
vt 0.0445 0.4776
vt 0.0551 0.4914
vt 0.0692 0.4701
vt 0.0563 0.4717
vt 0.0050 0.9919
vt 0.6568 0.9797
vt 0.6568 0.9919
vt 0.0050 0.9797
vt 0.6568 0.7839
vt 0.0050 0.7984
vt 0.0050 0.7839
vt 0.6568 0.8130
vt 0.9910 0.2990
vt 0.3392 0.3112
vt 0.3392 0.2990
vt 0.9910 0.3112
vt 0.9910 0.5069
vt 0.3392 0.4924
vt 0.9910 0.4924
vt 0.3392 0.4779
vt 0.7004 0.2873
vt 0.0050 0.0050
vt 0.7004 0.0050
vt 0.6568 0.7984
vt 0.3392 0.5069
vt 0.0050 0.2873
vt 0.9910 0.7716
vt 0.3819 0.5829
vt 0.9910 0.5829
vt 0.3819 0.7716
vn 0.9786 0.0769 -0.1908
vn 0.8965 0.4114 0.1645
vn 0.9786 0.0769 0.1908
vn -0.1663 0.4239 -0.8903
vn 0.1929 0.0922 -0.9769
vn -0.1929 0.0922 -0.9769
vn 0.1663 0.4239 0.8903
vn -0.1929 0.0922 0.9769
vn 0.1929 0.0922 0.9769
vn -0.8965 0.4114 0.1645
vn -0.9786 0.0769 -0.1908
vn -0.9786 0.0769 0.1908
vn 0.2045 -0.9575 0.2032
vn 0.6598 -0.3612 0.6589
vn 0.1983 -0.5619 0.8031
vn 0.7003 0.1610 0.6954
vn 0.8004 -0.5670 0.1947
vn 0.4950 0.7184 0.4888
vn 0.6387 0.4357 0.6341
vn 0.1557 0.9759 0.1528
vn 0.6051 0.7867 0.1220
vn 0.1244 0.7921 0.5976
vn -0.2045 -0.9575 0.2032
vn -0.6598 -0.3612 0.6589
vn -0.8003 -0.5670 0.1947
vn -0.7003 0.1610 0.6954
vn -0.1983 -0.5619 0.8031
vn -0.1557 0.9759 0.1528
vn -0.4950 0.7184 0.4888
vn -0.1244 0.7921 0.5976
vn -0.6051 0.7867 0.1220
vn -0.1663 0.4239 0.8903
vn -0.6387 0.4357 0.6341
vn 0.2045 -0.9575 -0.2032
vn 0.6598 -0.3612 -0.6589
vn 0.8004 -0.5670 -0.1947
vn 0.7003 0.1610 -0.6954
vn 0.1983 -0.5619 -0.8031
vn 0.1560 0.9758 -0.1531
vn 0.4950 0.7184 -0.4888
vn 0.1244 0.7921 -0.5976
vn 0.8965 0.4114 -0.1645
vn 0.6051 0.7867 -0.1220
vn 0.1663 0.4239 -0.8903
vn 0.6387 0.4357 -0.6341
vn -0.2045 -0.9575 -0.2032
vn -0.6598 -0.3612 -0.6589
vn -0.1983 -0.5619 -0.8031
vn -0.7003 0.1610 -0.6954
vn -0.8004 -0.5670 -0.1947
vn -0.1555 0.9760 -0.1525
vn -0.4950 0.7184 -0.4888
vn -0.6051 0.7867 -0.1220
vn -0.1244 0.7921 -0.5976
vn -0.8965 0.4114 -0.1645
vn -0.6387 0.4357 -0.6341
vn 0.1557 0.9759 -0.1528
vn -0.1557 0.9759 -0.1528
s 1
f 1/1/1 3/2/2 4/3/3
f 6/4/4 8/5/5 5/6/6
f 10/7/7 12/8/8 9/9/9
f 14/10/10 16/11/11 13/12/12
f 17/13/13 19/14/14 20/15/15
f 21/16/16 18/17/17 4/3/3
f 20/15/15 21/16/16 9/18/9
f 3/2/2 23/19/18 24/20/19
f 25/21/20 23/19/18 22/22/21
f 10/23/7 23/19/18 26/24/22
f 27/25/23 29/26/24 30/27/25
f 31/28/26 28/29/27 12/30/8
f 30/27/25 31/28/26 13/12/12
f 32/31/28 34/32/29 35/33/30
f 14/10/10 34/32/29 33/34/31
f 11/35/32 34/32/29 36/36/33
f 37/37/34 39/38/35 40/39/36
f 41/40/37 38/41/38 8/42/5
f 40/39/36 41/40/37 1/1/1
f 42/43/39 44/44/40 45/45/41
f 2/46/42 44/44/40 43/47/43
f 7/48/44 44/44/40 46/49/45
f 47/50/46 49/51/47 50/52/48
f 51/53/49 48/54/50 16/11/11
f 50/52/48 51/53/49 5/55/6
f 52/56/51 54/57/52 55/58/53
f 6/59/4 54/57/52 53/60/54
f 15/61/55 54/57/52 56/62/56
f 17/63/13 28/64/27 27/65/23
f 20/66/15 12/8/8 28/64/27
f 4/3/3 24/20/19 21/16/16
f 24/20/19 9/18/9 21/16/16
f 32/67/28 26/68/22 25/69/20
f 26/68/22 11/70/32 10/7/7
f 13/12/12 36/36/33 14/10/10
f 36/36/33 12/30/8 11/35/32
f 27/25/23 48/54/50 47/50/46
f 48/54/50 13/12/12 16/11/11
f 52/56/51 33/34/31 32/31/28
f 55/58/53 14/10/10 33/34/31
f 5/55/6 56/62/56 6/59/4
f 56/62/56 16/11/11 15/61/55
f 47/71/46 38/72/38 37/73/34
f 50/74/48 8/5/5 38/72/38
f 52/75/51 45/76/41 53/77/54
f 53/77/54 7/78/44 6/4/4
f 1/1/1 46/49/45 2/46/42
f 46/49/45 8/42/5 7/48/44
f 37/37/34 18/17/17 17/13/13
f 18/17/17 1/1/1 4/3/3
f 25/21/20 43/47/43 42/43/39
f 43/47/43 3/2/2 2/46/42
f 47/79/46 17/80/13 27/81/23
f 1/1/1 2/46/42 3/2/2
f 6/4/4 7/78/44 8/5/5
f 10/7/7 11/70/32 12/8/8
f 14/10/10 15/61/55 16/11/11
f 17/13/13 18/17/17 19/14/14
f 21/16/16 19/14/14 18/17/17
f 20/15/15 19/14/14 21/16/16
f 3/2/2 22/22/21 23/19/18
f 25/21/20 26/24/22 23/19/18
f 10/23/7 24/20/19 23/19/18
f 27/25/23 28/29/27 29/26/24
f 31/28/26 29/26/24 28/29/27
f 30/27/25 29/26/24 31/28/26
f 32/31/28 33/34/31 34/32/29
f 14/10/10 36/36/33 34/32/29
f 11/35/32 35/33/30 34/32/29
f 37/37/34 38/41/38 39/38/35
f 41/40/37 39/38/35 38/41/38
f 40/39/36 39/38/35 41/40/37
f 42/43/39 43/47/43 44/44/40
f 2/46/42 46/49/45 44/44/40
f 7/48/44 45/45/41 44/44/40
f 47/50/46 48/54/50 49/51/47
f 51/53/49 49/51/47 48/54/50
f 50/52/48 49/51/47 51/53/49
f 52/56/51 53/60/54 54/57/52
f 6/59/4 56/62/56 54/57/52
f 15/61/55 55/58/53 54/57/52
f 17/63/13 20/66/15 28/64/27
f 20/66/15 9/9/9 12/8/8
f 4/3/3 3/2/2 24/20/19
f 24/20/19 10/23/7 9/18/9
f 32/67/28 35/82/30 26/68/22
f 26/68/22 35/82/30 11/70/32
f 13/12/12 31/28/26 36/36/33
f 36/36/33 31/28/26 12/30/8
f 27/25/23 30/27/25 48/54/50
f 48/54/50 30/27/25 13/12/12
f 52/56/51 55/58/53 33/34/31
f 55/58/53 15/61/55 14/10/10
f 5/55/6 51/53/49 56/62/56
f 56/62/56 51/53/49 16/11/11
f 47/71/46 50/74/48 38/72/38
f 50/74/48 5/6/6 8/5/5
f 52/75/51 42/83/39 45/76/41
f 53/77/54 45/76/41 7/78/44
f 1/1/1 41/40/37 46/49/45
f 46/49/45 41/40/37 8/42/5
f 37/37/34 40/39/36 18/17/17
f 18/17/17 40/39/36 1/1/1
f 25/21/20 22/22/21 43/47/43
f 43/47/43 22/22/21 3/2/2
f 47/79/46 37/84/34 17/80/13
s 2
f 32/85/28 42/86/57 52/87/58
f 32/85/28 25/88/20 42/86/57
